<svg id="Emperador" xmlns="http://www.w3.org/2000/svg" width="87.741" height="87.741" viewBox="0 0 87.741 87.741">
  <path id="Trazado_301" data-name="Trazado 301" d="M211.866,41.471V2.742L193.873,20.736,173.137,0,156,58.608Zm0,0" transform="translate(-129.266)" fill="#ffa356"/>
  <path id="Trazado_302" data-name="Trazado 302" d="M68.729,0,47.994,20.736,30,2.742V41.471L68.729,58.608Zm0,0" transform="translate(-24.859)" fill="#ffbe4e"/>
  <path id="Trazado_303" data-name="Trazado 303" d="M211.866,257.423V242H173.137L156,274.56Zm0,0" transform="translate(-129.266 -200.529)" fill="#ff855c"/>
  <path id="Trazado_304" data-name="Trazado 304" d="M68.729,242H30v15.423L68.729,274.56Zm0,0" transform="translate(-24.859 -200.529)" fill="#ffa356"/>
  <path id="Trazado_305" data-name="Trazado 305" d="M173.137,332,156,352.564h55.866V332Zm0,0" transform="translate(-129.266 -275.106)" fill="#ff6358"/>
  <path id="Trazado_306" data-name="Trazado 306" d="M30,332H68.729v20.564H30Zm0,0" transform="translate(-24.859 -275.106)" fill="#ff855c"/>
  <path id="Trazado_307" data-name="Trazado 307" d="M242.441,422H206.282L196,429.712l10.282,7.712h36.159a7.712,7.712,0,1,0,0-15.423Zm0,0" transform="translate(-162.412 -349.682)" fill="#ffa356"/>
  <path id="Trazado_308" data-name="Trazado 308" d="M7.712,422a7.712,7.712,0,1,0,0,15.423H43.871V422Zm0,0" transform="translate(0 -349.682)" fill="#ffbe4e"/>
  <path id="Trazado_309" data-name="Trazado 309" d="M231.141,272,226,282.282l5.141,10.282a10.282,10.282,0,0,0,0-20.564Zm0,0" transform="translate(-187.27 -225.388)" fill="#d63d52"/>
  <path id="Trazado_310" data-name="Trazado 310" d="M196,282.282a10.282,10.282,0,0,0,10.282,10.282V272A10.282,10.282,0,0,0,196,282.282Zm0,0" transform="translate(-162.412 -225.388)" fill="#ff4154"/>
  <path id="Trazado_311" data-name="Trazado 311" d="M15.423,294.711A7.712,7.712,0,1,1,7.712,287,7.712,7.712,0,0,1,15.423,294.711Zm0,0" transform="translate(0 -237.817)" fill="#ffe26c"/>
  <path id="Trazado_312" data-name="Trazado 312" d="M437.423,294.711A7.712,7.712,0,1,1,429.712,287,7.712,7.712,0,0,1,437.423,294.711Zm0,0" transform="translate(-349.682 -237.817)" fill="#ffbe4e"/>
</svg>
