<svg id="Guardian" xmlns="http://www.w3.org/2000/svg" width="116.193" height="145.34" viewBox="0 0 116.193 145.34">
  <path id="Trazado_313" data-name="Trazado 313" d="M175.044,60.248l-4.419,9.071-4.419-9.071A33.848,33.848,0,0,0,136.783,93.8v15.241l33.842-8.367,33.842,8.367V93.8A33.848,33.848,0,0,0,175.044,60.248Z" transform="translate(-112.528 -43.146)" fill="#c6c5ca"/>
  <g id="Grupo_223" data-name="Grupo 223" transform="translate(19.448 17.102)">
    <path id="Trazado_314" data-name="Trazado 314" d="M237.159,190.182v-9.414L211.9,176.51l-25.264,4.258v9.414l25.264-6.246Z" transform="translate(-167.675 -143.507)" fill="#898890"/>
    <path id="Trazado_315" data-name="Trazado 315" d="M272.2,60.421c-.382-.063-.766-.123-1.153-.173l-.208.427Q271.512,60.534,272.2,60.421Z" transform="translate(-227.977 -60.248)" fill="#898890"/>
    <path id="Trazado_316" data-name="Trazado 316" d="M281.2,202.671l-5.572,1.378,28.269,6.99v-2.755Z" transform="translate(-231.41 -162.242)" fill="#898890"/>
    <path id="Trazado_317" data-name="Trazado 317" d="M147.927,93.8a33.844,33.844,0,0,1,19.654-30.73L166.2,60.248A33.848,33.848,0,0,0,136.782,93.8v15.241l11.144-2.755V93.8Z" transform="translate(-131.976 -60.248)" fill="#898890"/>
    <path id="Trazado_318" data-name="Trazado 318" d="M197.146,239.6,158.5,258.858,119.85,239.6v-27.37l38.649-9.556,38.647,9.556Z" transform="translate(-119.85 -162.242)" fill="#898890"/>
  </g>
  <path id="Trazado_319" data-name="Trazado 319" d="M132.34,239.6v-27.37l32.4-8.011-6.245-1.544-38.649,9.556V239.6L158.5,258.858l6.245-3.112Z" transform="translate(-100.402 -145.14)" fill="#57565c"/>
  <path id="Trazado_320" data-name="Trazado 320" d="M249.058,22.186,244.5,31.545l-4.559-9.358L242.264,7.5h4.47Z" transform="translate(-186.402 -5.371)" fill="#ff7956"/>
  <path id="Trazado_321" data-name="Trazado 321" d="M244.151,22.186,246.475,7.5h-4.211l-2.325,14.686,4.559,9.358,2.106-4.322Z" transform="translate(-186.402 -5.371)" fill="#ff3f62"/>
  <path id="Trazado_322" data-name="Trazado 322" d="M217.528,190.182v-9.414l-25.264-4.258L167,180.768v9.414l25.264-6.246Z" transform="translate(-134.168 -126.405)" fill="#898890"/>
  <path id="Trazado_323" data-name="Trazado 323" d="M143.843,353.528l-26.814,13.364L90.217,353.529l-28.274,8.262a61.156,61.156,0,0,0,110.173,0Z" transform="translate(-58.933 -253.174)" fill="#c6c5ca"/>
  <g id="Grupo_224" data-name="Grupo 224" transform="translate(3.01 100.354)">
    <path id="Trazado_324" data-name="Trazado 324" d="M77.272,361.794l18.611-5.439-5.666-2.823-28.274,8.262a61.213,61.213,0,0,0,62.75,34.115A61.183,61.183,0,0,1,77.272,361.794Z" transform="translate(-61.943 -353.531)" fill="#898890"/>
    <path id="Trazado_325" data-name="Trazado 325" d="M290.664,366.892l21.149-10.541-9.664-2.823L283,363.072Z" transform="translate(-220.25 -353.528)" fill="#898890"/>
  </g>
  <g id="Grupo_225" data-name="Grupo 225" transform="translate(66.403 25.015)">
    <path id="Trazado_326" data-name="Trazado 326" d="M329.364,130.06a27.361,27.361,0,0,0-4.652-9.665l-3.4,2.558a23.122,23.122,0,0,1,3.932,8.168Z" transform="translate(-311.076 -111.234)" fill="#fff"/>
    <path id="Trazado_327" data-name="Trazado 327" d="M285.261,92.1a23,23,0,0,1,3.5,1.7l2.176-3.66a27.291,27.291,0,0,0-4.151-2.013Z" transform="translate(-285.261 -88.123)" fill="#fff"/>
    <path id="Trazado_328" data-name="Trazado 328" d="M308.092,107.263l3.1-2.919a27.708,27.708,0,0,0-3.428-3.08l-2.572,3.394A23.436,23.436,0,0,1,308.092,107.263Z" transform="translate(-299.534 -97.534)" fill="#fff"/>
    <path id="Trazado_329" data-name="Trazado 329" d="M326.973,432.571a50.241,50.241,0,0,1-9.836,4.877l1.462,4a54.528,54.528,0,0,0,10.671-5.291c1.349-.864,2.675-1.8,3.941-2.775l-2.6-3.371C329.442,430.911,328.219,431.773,326.973,432.571Z" transform="translate(-308.089 -332.96)" fill="#fff"/>
    <path id="Trazado_330" data-name="Trazado 330" d="M372.037,416.911l2.778,3.226c1.115-.96,2.2-1.977,3.236-3.022l-3.029-2.993C374.07,415.088,373.065,416.026,372.037,416.911Z" transform="translate(-347.404 -321.583)" fill="#fff"/>
    <path id="Trazado_331" data-name="Trazado 331" d="M395.1,398.536l-3.4-2.559c-.815,1.084-1.685,2.148-2.585,3.163l3.186,2.825C393.275,400.865,394.218,399.712,395.1,398.536Z" transform="translate(-359.634 -308.588)" fill="#fff"/>
  </g>
  <g id="Grupo_226" data-name="Grupo 226" transform="translate(0)">
    <path id="Trazado_332" data-name="Trazado 332" d="M193.9,95.774V65.42l-13.383-3.309V52.563L155.255,48.3V26.665l2-4.115,1.512-3.1A31.783,31.783,0,0,1,184.84,50.657v9.393H189.1V50.657a36.052,36.052,0,0,0-29.5-35.388L157.179,0h-8.107l-2.417,15.269a36.052,36.052,0,0,0-29.5,35.388V60.05h4.258V50.657A31.783,31.783,0,0,1,147.48,19.446L151,26.665V48.3l-25.264,4.258V62.11L112.348,65.42V95.774L153.126,116.1ZM153.543,4.258l1.935,12.228-2.351,4.827-2.352-4.827L152.71,4.258ZM129.991,56.163l23.135-3.9,23.135,3.9v4.895l-23.135-5.72-23.135,5.72V56.163ZM116.607,68.754,151,60.251V68h4.258V60.251l34.389,8.5V93.139l-34.389,17.14V71.323H151v38.955l-34.391-17.14Z" transform="translate(-95.029)" fill="#1d1d1f"/>
    <path id="Trazado_333" data-name="Trazado 333" d="M164.776,121.274a27.4,27.4,0,0,0-5.262,14.327l4.248.295a23.137,23.137,0,0,1,4.446-12.1Z" transform="translate(-128.807 -86.849)" fill="#1d1d1f"/>
    <rect id="Rectángulo_188" data-name="Rectángulo 188" width="15.052" height="4.258" transform="matrix(0.96, -0.28, 0.28, 0.96, 15.428, 111.643)" fill="#1d1d1f"/>
    <path id="Trazado_334" data-name="Trazado 334" d="M167.409,450.93l1.736-3.888c-1.238-.553-2.469-1.163-3.659-1.815l-2.046,3.734C164.731,449.668,166.067,450.331,167.409,450.93Z" transform="translate(-131.619 -318.842)" fill="#1d1d1f"/>
    <path id="Trazado_335" data-name="Trazado 335" d="M191.234,460.68l1.193-4.087c-1.3-.381-2.6-.819-3.87-1.3l-1.521,3.977C188.409,459.792,189.821,460.268,191.234,460.68Z" transform="translate(-148.516 -326.049)" fill="#1d1d1f"/>
    <path id="Trazado_336" data-name="Trazado 336" d="M216.239,467.3l.632-4.211c-1.343-.2-2.693-.46-4.012-.769l-.97,4.146C213.319,466.8,214.783,467.078,216.239,467.3Z" transform="translate(-166.314 -331.081)" fill="#1d1d1f"/>
    <rect id="Rectángulo_189" data-name="Rectángulo 189" width="4.258" height="35.253" transform="translate(46.6 65.951)" fill="#1d1d1f"/>
    <rect id="Rectángulo_190" data-name="Rectángulo 190" width="4.258" height="4.258" transform="translate(36.69 93.812)" fill="#1d1d1f"/>
    <rect id="Rectángulo_191" data-name="Rectángulo 191" width="4.258" height="15.357" transform="translate(36.69 68.52)" fill="#1d1d1f"/>
    <rect id="Rectángulo_192" data-name="Rectángulo 192" width="4.258" height="4.258" transform="translate(36.69 86.715)" fill="#1d1d1f"/>
    <rect id="Rectángulo_193" data-name="Rectángulo 193" width="4.258" height="22.102" transform="translate(26.784 70.683)" fill="#1d1d1f"/>
    <rect id="Rectángulo_194" data-name="Rectángulo 194" width="4.258" height="4.258" transform="translate(65.335 65.951)" fill="#1d1d1f"/>
    <rect id="Rectángulo_195" data-name="Rectángulo 195" width="4.258" height="4.258" transform="translate(65.335 73.047)" fill="#1d1d1f"/>
    <rect id="Rectángulo_196" data-name="Rectángulo 196" width="4.258" height="21.06" transform="translate(65.335 80.144)" fill="#1d1d1f"/>
    <rect id="Rectángulo_197" data-name="Rectángulo 197" width="4.258" height="29.55" transform="translate(75.242 68.52)" fill="#1d1d1f"/>
    <rect id="Rectángulo_198" data-name="Rectángulo 198" width="4.258" height="22.102" transform="translate(85.152 70.683)" fill="#1d1d1f"/>
    <path id="Trazado_337" data-name="Trazado 337" d="M144.87,354.586l-1.194,4.087,17.783,5.2a59.424,59.424,0,0,1-49.9,31.1v-21.25H107.3v21.25a59.424,59.424,0,0,1-49.894-31.1l17.785-5.2L74,354.588,51.338,361.21l1.093,2.264a63.281,63.281,0,0,0,114.008,0l1.093-2.264Z" transform="translate(-51.338 -253.931)" fill="#1d1d1f"/>
  </g>
</svg>
