<svg xmlns="http://www.w3.org/2000/svg" width="111.285" height="111.285" viewBox="0 0 111.285 111.285"><g transform="translate(0)"><path d="M47.166,0H11.954A11.968,11.968,0,0,0,0,11.954V99.33a11.968,11.968,0,0,0,11.954,11.954H47.166a3.26,3.26,0,0,0,3.26-3.26V3.26A3.26,3.26,0,0,0,47.166,0Zm0,0" fill="#e8edf5"/><path d="M126.13,207.948a3.263,3.263,0,0,1-2.654-1.365l-10.868-15.215a3.263,3.263,0,0,1,0-3.79l10.868-15.215a3.26,3.26,0,0,1,5.914,1.9v30.429a3.26,3.26,0,0,1-3.259,3.26Zm0,0" transform="translate(-87.657 -133.831)" fill="#656e73"/><path d="M61.781,83.909a3.259,3.259,0,0,1-2.608-1.3l-6.521-8.694a3.26,3.26,0,0,1,0-3.912L59.173,61.3a3.26,3.26,0,0,1,5.216,0L70.91,70a3.26,3.26,0,0,1,0,3.912L64.389,82.6A3.26,3.26,0,0,1,61.781,83.909Zm0,0" transform="translate(-40.698 -46.959)" fill="#656e73"/><path d="M226.119,111.285H173.954A11.968,11.968,0,0,1,162,99.33V11.954A11.968,11.968,0,0,1,173.954,0h52.165a11.968,11.968,0,0,1,11.954,11.954V99.33A11.968,11.968,0,0,1,226.119,111.285Zm0,0" transform="translate(-126.789)" fill="#f3f9fa"/><path d="M232.868,79.6a3.252,3.252,0,0,1-2.271-.921l-6.4-6.218a7.177,7.177,0,0,1,0-10.33,7.506,7.506,0,0,1,8.674-1.225,7.506,7.506,0,0,1,8.674,1.225,7.177,7.177,0,0,1,0,10.33l-6.4,6.218A3.252,3.252,0,0,1,232.868,79.6Zm.582-15.131h0Zm0,0" transform="translate(-173.747 -46.998)" fill="#9bf38d"/><path d="M359.376,381.55a7.419,7.419,0,0,1-5.182-2.081,7.177,7.177,0,0,1,0-10.33l6.4-6.218a3.259,3.259,0,0,1,4.542,0l6.4,6.218a7.177,7.177,0,0,1,0,10.33,7.506,7.506,0,0,1-8.674,1.225A7.512,7.512,0,0,1,359.376,381.55Zm0,0" transform="translate(-275.492 -283.317)" fill="#9bf38d"/><path d="M363.082,0H337V111.285h26.083A11.968,11.968,0,0,0,375.037,99.33V11.954A11.968,11.968,0,0,0,363.082,0Zm0,0" transform="translate(-263.752)" fill="#e8edf5"/><path d="M241.541,62.131a7.506,7.506,0,0,0-8.674-1.225,7.506,7.506,0,0,0-8.674,1.225,7.177,7.177,0,0,0,0,10.33l6.4,6.218a3.261,3.261,0,0,0,4.543,0l6.4-6.218a7.175,7.175,0,0,0,0-10.33Zm0,0" transform="translate(-173.747 -46.998)" fill="#ff455a"/><path d="M359.376,381.55a7.419,7.419,0,0,1-5.182-2.081,7.177,7.177,0,0,1,0-10.33l6.4-6.218a3.259,3.259,0,0,1,4.542,0l6.4,6.218a7.177,7.177,0,0,1,0,10.33,7.506,7.506,0,0,1-8.674,1.225A7.512,7.512,0,0,1,359.376,381.55Zm0,0" transform="translate(-275.492 -283.317)" fill="#bf0032"/><path d="M285.55,194.309a11.712,11.712,0,0,0-15.076-.946,11.712,11.712,0,0,0-15.075.946,11.093,11.093,0,0,0,0,15.983l12.8,12.436a3.261,3.261,0,0,0,4.543,0l12.8-12.436a11.093,11.093,0,0,0,0-15.983Zm0,0" transform="translate(-197.227 -149.532)" fill="#ff455a"/><path d="M352.075,194.309A11.712,11.712,0,0,0,337,193.363v30.286a3.251,3.251,0,0,0,2.271-.921l12.8-12.436a11.093,11.093,0,0,0,0-15.983Zm0,0" transform="translate(-263.751 -149.532)" fill="#bf0032"/></g></svg>