<svg id="cart" xmlns="http://www.w3.org/2000/svg" width="44.063" height="44.063" viewBox="0 0 44.063 44.063">
  <path id="Trazado_211" data-name="Trazado 211" d="M13.219,35.25a4.406,4.406,0,1,0,4.406,4.406A4.419,4.419,0,0,0,13.219,35.25ZM0,0V4.406H4.406L12.337,21.15,9.253,26.438a7.828,7.828,0,0,0-.441,2.2,4.419,4.419,0,0,0,4.406,4.406H39.656V28.641H14.1a.474.474,0,0,1-.441-.441v-.22l1.983-3.745h16.3a4.018,4.018,0,0,0,3.745-2.2l7.931-14.32a1.213,1.213,0,0,0,.441-1.1,2.081,2.081,0,0,0-2.2-2.2H9.253L7.27,0ZM35.25,35.25a4.406,4.406,0,1,0,4.406,4.406A4.419,4.419,0,0,0,35.25,35.25Z" fill="#838af2"/>
</svg>
