<svg xmlns="http://www.w3.org/2000/svg" width="13.822" height="13.822" viewBox="0 0 13.822 13.822">
  <g id="close" transform="translate(0 0)" opacity="0.67">
    <g id="Grupo_160" data-name="Grupo 160" transform="translate(0 0)">
      <g id="Grupo_159" data-name="Grupo 159" transform="translate(0 0)">
        <path id="Trazado_164" data-name="Trazado 164" d="M13.659.164a.558.558,0,0,0-.79,0L.164,12.869a.558.558,0,1,0,.79.79L13.659.953A.558.558,0,0,0,13.659.164Z" transform="translate(0 0)" fill="#7b82a5"/>
      </g>
    </g>
    <g id="Grupo_162" data-name="Grupo 162" transform="translate(0 0)">
      <g id="Grupo_161" data-name="Grupo 161" transform="translate(0 0)">
        <path id="Trazado_165" data-name="Trazado 165" d="M13.659,12.87.953.165a.558.558,0,0,0-.79.79L12.869,13.66a.558.558,0,1,0,.79-.79Z" transform="translate(0 -0.001)" fill="#7b82a5"/>
      </g>
    </g>
  </g>
</svg>
