<svg xmlns="http://www.w3.org/2000/svg" width="65.473" height="65.474" viewBox="0 0 65.473 65.474">
  <g id="debit-card" transform="translate(0 -0.301)">
    <path id="Trazado_251" data-name="Trazado 251" d="M460.914,73.375,449.105,61.543v47.412h15.8V82.981A13.548,13.548,0,0,0,460.914,73.375Zm0,0" transform="translate(-399.435 -54.469)" fill="#ffb782"/>
    <path id="Trazado_252" data-name="Trazado 252" d="M9.23,45.854.3,22.678a4.515,4.515,0,0,1,2.591-5.836L45.031.611A4.515,4.515,0,0,1,50.867,3.2l8.927,23.176A4.515,4.515,0,0,1,57.2,32.214L15.067,48.445A4.517,4.517,0,0,1,9.23,45.854Zm0,0" transform="translate(0 -0.007)" fill="#41f9ae"/>
    <path id="Trazado_253" data-name="Trazado 253" d="M82.719,101.961,32.2,121.545l3.364,8.733L86.085,110.7Zm0,0" transform="translate(-28.635 -90.417)" fill="#7a4930"/>
    <path id="Trazado_254" data-name="Trazado 254" d="M0,29.651V4.816A4.516,4.516,0,0,1,4.519.3H49.674A4.516,4.516,0,0,1,54.19,4.816V29.651a4.516,4.516,0,0,1-4.516,4.516H4.519A4.516,4.516,0,0,1,0,29.651Zm0,0" transform="translate(-0.004 0)" fill="#5895be"/>
    <path id="Trazado_255" data-name="Trazado 255" d="M138.183.3h-4.8L99.52,34.167h38.664a4.516,4.516,0,0,0,4.516-4.516V4.816A4.516,4.516,0,0,0,138.183.3Zm0,0" transform="translate(-88.513 0)" fill="#3e8cc7"/>
    <path id="Trazado_256" data-name="Trazado 256" d="M40.832,163.609h4.516v2.258H40.832Zm0,0" transform="translate(-36.316 -145.246)" fill="#5eb3d1"/>
    <path id="Trazado_257" data-name="Trazado 257" d="M40.832,224.852h4.516v2.258H40.832Zm0,0" transform="translate(-36.316 -199.716)" fill="#5eb3d1"/>
    <path id="Trazado_258" data-name="Trazado 258" d="M224.555,224.852h4.516v2.258h-4.516Zm0,0" transform="translate(-199.72 -199.716)" fill="#5eb3d1"/>
    <path id="Trazado_259" data-name="Trazado 259" d="M102.074,163.609h4.515v2.258h-4.515Zm0,0" transform="translate(-90.785 -145.246)" fill="#5eb3d1"/>
    <path id="Trazado_260" data-name="Trazado 260" d="M163.313,163.609h4.516v2.258h-4.516Zm0,0" transform="translate(-145.251 -145.246)" fill="#5eb3d1"/>
    <path id="Trazado_261" data-name="Trazado 261" d="M224.555,163.609h4.516v2.258h-4.516Zm0,0" transform="translate(-199.72 -145.246)" fill="#5eb3d1"/>
    <path id="Trazado_262" data-name="Trazado 262" d="M418.484,41.129h2.258v3.387h-2.258Zm0,0" transform="translate(-372.2 -36.313)" fill="#5eb3d1"/>
    <path id="Trazado_263" data-name="Trazado 263" d="M377.656,41.129h2.258v3.387h-2.258Zm0,0" transform="translate(-335.888 -36.313)" fill="#5eb3d1"/>
    <path id="Trazado_264" data-name="Trazado 264" d="M336.828,41.129h2.258v3.387h-2.258Zm0,0" transform="translate(-299.576 -36.313)" fill="#5eb3d1"/>
    <path id="Trazado_265" data-name="Trazado 265" d="M296,41.129h2.257v3.387H296Zm0,0" transform="translate(-263.267 -36.313)" fill="#5eb3d1"/>
    <path id="Trazado_266" data-name="Trazado 266" d="M408.277,490.23H428.6v11.289h-20.32Zm0,0" transform="translate(-363.122 -435.744)" fill="#e6e08c"/>
    <path id="Trazado_267" data-name="Trazado 267" d="M311.189,173.211a4.894,4.894,0,0,0-7.067,6.768l9.251,10.092a15.225,15.225,0,0,0,.308,15.62L314.5,207h14.675V191.2Zm0,0" transform="translate(-269.347 -152.517)" fill="#ffb782"/>
    <path id="Trazado_268" data-name="Trazado 268" d="M438.9,520.852h2.258v2.258H438.9Zm0,0" transform="translate(-390.357 -462.979)" fill="#c1bc75"/>
    <path id="Trazado_269" data-name="Trazado 269" d="M40.832,48.354V42.935a1.806,1.806,0,0,1,1.806-1.806h5.418a1.805,1.805,0,0,1,1.806,1.806v5.418a1.805,1.805,0,0,1-1.806,1.806H42.638A1.806,1.806,0,0,1,40.832,48.354Zm0,0" transform="translate(-36.316 -36.313)" fill="#fdb62f"/>
    <path id="Trazado_270" data-name="Trazado 270" d="M40.832,71.75h3.387v2.258H40.832Zm0,0" transform="translate(-36.316 -63.547)" fill="#fd7b2f"/>
    <path id="Trazado_271" data-name="Trazado 271" d="M91.867,71.75h3.386v2.258H91.867Zm0,0" transform="translate(-81.707 -63.547)" fill="#fd7b2f"/>
    <path id="Trazado_272" data-name="Trazado 272" d="M485.48,292.979a1.127,1.127,0,0,1-.8-.331l-4.516-4.516a1.129,1.129,0,0,1,1.6-1.6l4.516,4.516a1.129,1.129,0,0,1-.8,1.927Zm0,0" transform="translate(-426.779 -254.297)" fill="#f2a46f"/>
  </g>
</svg>
