<svg xmlns="http://www.w3.org/2000/svg" width="112.233" height="112.51" viewBox="0 0 112.233 112.51">
  <g id="dragon" transform="translate(-0.605)">
    <g id="Grupo_252" data-name="Grupo 252" transform="translate(22.933)">
      <ellipse id="Elipse_76" data-name="Elipse 76" cx="22.283" cy="11.324" rx="22.283" ry="11.324" transform="translate(11.507 89.862)" fill="#5e0404"/>
      <path id="Trazado_357" data-name="Trazado 357" d="M98.4,16.986S98.948,6.21,110.637,0c0,0,8.219.731,12.968,6.758,0,0,3.47-3.653,6.027-3.288l2.557,2.922V26.118L101.87,30.137Z" transform="translate(-98.4)" fill="#5e0404"/>
      <path id="Trazado_358" data-name="Trazado 358" d="M280.19,16.986S279.642,6.21,267.952,0c0,0-8.219.731-12.968,6.758,0,0-3.47-3.653-6.027-3.288L246.4,6.393V26.118l30.319,4.018Z" transform="translate(-212.61)" fill="#5e0404"/>
    </g>
    <g id="Grupo_253" data-name="Grupo 253" transform="translate(3.207 9.132)">
      <path id="Trazado_359" data-name="Trazado 359" d="M19.123,213.6s-4.749,1.279-7.123,4.384c0,0,2.009,2.922,4.566,2.922,0,0-1.461.183-1.644,2.192,0,0,1.644,2.74,3.47,2.922s6.21,9.68,6.21,9.68l2.557-18.082Z" transform="translate(-12 -173.966)" fill="#d31e1e"/>
      <path id="Trazado_360" data-name="Trazado 360" d="M47.747,53.881A19.51,19.51,0,0,1,47.382,40s18.63,1.1,19,12.42a47.254,47.254,0,0,0,3.836-10.776s7.854,2.192,10.776,8.4c0,0,1.644-5.114,4.566-6.027,2.922-1.1,6.575,4.2,6.575,6.758s-9.315,19.178-9.315,19.178l-15.16,2.009Z" transform="translate(-38.432 -40)" fill="#d31e1e"/>
    </g>
    <g id="Grupo_254" data-name="Grupo 254" transform="translate(56.54 9.132)">
      <path id="Trazado_361" data-name="Trazado 361" d="M422.436,213.6s4.749,1.279,7.123,4.384c0,0-2.009,2.922-4.566,2.922,0,0,1.461.183,1.644,2.192,0,0-1.644,2.74-3.47,2.922s-6.21,9.68-6.21,9.68L414.4,217.618Z" transform="translate(-375.862 -173.966)" fill="#ff0606"/>
      <path id="Trazado_362" data-name="Trazado 362" d="M289.983,53.881A19.51,19.51,0,0,0,290.348,40s-18.63,1.1-19,12.42a47.253,47.253,0,0,1-3.836-10.776s-7.854,2.192-10.776,8.4c0,0-1.644-5.114-4.566-6.027-2.922-1.1-6.575,4.2-6.575,6.758s9.315,19.178,9.315,19.178l15.16,2.009Z" transform="translate(-245.6 -40)" fill="#ff0606"/>
    </g>
    <g id="Grupo_255" data-name="Grupo 255" transform="translate(15.079 86.757)">
      <path id="Trazado_363" data-name="Trazado 363" d="M72.219,380l15.16,7.123v13.516L82.63,395.16H72.767l4.018-3.653H67.653l5.479-5.479H64l3.653-3.47Z" transform="translate(-64 -380)" fill="#5e0404"/>
      <path id="Trazado_364" data-name="Trazado 364" d="M341.56,380l-15.16,7.123v13.516l4.749-5.479h9.863l-4.018-3.653h9.132l-5.479-5.479h9.132l-3.653-3.47Z" transform="translate(-266.492 -380)" fill="#5e0404"/>
    </g>
    <ellipse id="Elipse_77" data-name="Elipse 77" cx="46.21" cy="38.721" rx="46.21" ry="38.721" transform="translate(10.513 20.639)" fill="#ff0606"/>
    <path id="Trazado_365" data-name="Trazado 365" d="M246.4,90.4c25.57,0,46.21,17.351,46.21,38.721s-20.639,38.721-46.21,38.721" transform="translate(-189.678 -69.761)" fill="#d31e1e"/>
    <ellipse id="Elipse_78" data-name="Elipse 78" cx="23.927" cy="18.082" rx="23.927" ry="18.082" transform="translate(32.796 70.867)" fill="#890000"/>
    <ellipse id="Elipse_79" data-name="Elipse 79" cx="23.927" cy="18.082" rx="23.927" ry="18.082" transform="translate(32.796 65.022)" fill="#ff7f15"/>
    <path id="Trazado_366" data-name="Trazado 366" d="M246.4,284.8c13.151,0,23.927,8.036,23.927,18.082s-10.776,18.082-23.927,18.082" transform="translate(-189.678 -219.778)" fill="#ea6a0a"/>
    <ellipse id="Elipse_80" data-name="Elipse 80" cx="21.187" cy="12.603" rx="21.187" ry="12.603" transform="translate(35.535 65.387)" fill="#ffa412"/>
    <path id="Trazado_367" data-name="Trazado 367" d="M246.4,286.4c11.689,0,21.187,5.662,21.187,12.6s-9.5,12.6-21.187,12.6" transform="translate(-189.678 -221.013)" fill="#ff7915"/>
    <ellipse id="Elipse_81" data-name="Elipse 81" cx="21.187" cy="8.584" rx="21.187" ry="8.584" transform="translate(35.535 67.944)" fill="#d31e1e"/>
    <path id="Trazado_368" data-name="Trazado 368" d="M246.4,297.6c11.689,0,21.187,3.836,21.187,8.584s-9.5,8.584-21.187,8.584" transform="translate(-189.678 -229.656)" fill="#a80404"/>
    <path id="Trazado_369" data-name="Trazado 369" d="M45.154,270.74s-5.845-6.941-20.274,7.488c-12.055,11.872-22.1-3.47-17.351-10.411,0,0-.548-5.3-4.566,6.027-3.836,11.324,3.288,24.475,19.543,21,16.438-3.653,18.265-8.767,27.032-7.671s7.854-6.393,8.219-8.036,0-10.228,0-10.228Z" transform="translate(-1.035 -205.718)" fill="#890000"/>
    <path id="Trazado_370" data-name="Trazado 370" d="M92,302.736c16.438-3.653,18.265-8.767,27.032-7.671s7.854-6.393,8.219-8.036,0-10.228,0-10.228l-12.6,2.009" transform="translate(-70.529 -213.604)" fill="#5e0404"/>
    <path id="Trazado_371" data-name="Trazado 371" d="M1.015,64.8S-3.368,98.042,16.54,105.713l-3.653,4.2h9.132v6.21l10.959-10.959S50.147,91.1,29.325,77.4A95.885,95.885,0,0,0,1.015,64.8Z" transform="translate(0 -50.006)" fill="#a80404"/>
    <path id="Trazado_372" data-name="Trazado 372" d="M1.015,64.8S-3.368,98.042,16.54,105.713l-3.653,4.2h9.132v6.21l10.959-10.959S46.859,90.918,26.038,77.22C11.243,67.357,1.015,64.8,1.015,64.8Z" transform="translate(0 -50.006)" fill="#890000"/>
    <path id="Trazado_373" data-name="Trazado 373" d="M23.4,109.914v6.21l10.959-10.959S48.244,90.918,27.423,77.22C12.628,67.357,2.4,64.8,2.4,64.8" transform="translate(-1.385 -50.006)" fill="#5e0404"/>
    <path id="Trazado_374" data-name="Trazado 374" d="M114.805,175.664a12.6,12.6,0,0,1-25.205,0c0-6.758,5.662-14.064,12.6-14.064C109.143,161.783,114.805,168.906,114.805,175.664Z" transform="translate(-68.676 -124.705)" fill="#ffa412"/>
    <ellipse id="Elipse_82" data-name="Elipse 82" cx="12.603" cy="12.42" rx="12.603" ry="12.42" transform="translate(20.741 38.538)" fill="#a80404"/>
    <path id="Trazado_375" data-name="Trazado 375" d="M104.8,172.762a13.025,13.025,0,0,1,17.9,0,12.239,12.239,0,0,1,0,17.534" transform="translate(-80.406 -130.57)" fill="#890000"/>
    <ellipse id="Elipse_83" data-name="Elipse 83" cx="9.863" cy="9.498" rx="9.863" ry="9.498" transform="translate(23.481 41.461)" fill="#ffa412"/>
    <path id="Trazado_376" data-name="Trazado 376" d="M144,181.6a9.5,9.5,0,1,1,0,19" transform="translate(-110.657 -140.139)" fill="#ff7f15"/>
    <ellipse id="Elipse_84" data-name="Elipse 84" cx="5.114" cy="4.931" rx="5.114" ry="4.931" transform="translate(28.229 46.027)" fill="#5e0404"/>
    <path id="Trazado_377" data-name="Trazado 377" d="M144,201.6a5.069,5.069,0,0,1,5.114,4.931A4.954,4.954,0,0,1,144,211.463" transform="translate(-110.657 -155.573)" fill="#350202"/>
    <g id="Grupo_256" data-name="Grupo 256" transform="translate(29.143 46.94)">
      <ellipse id="Elipse_85" data-name="Elipse 85" cx="1.644" cy="1.461" rx="1.644" ry="1.461" fill="#ffe799"/>
      <circle id="Elipse_86" data-name="Elipse 86" cx="0.913" cy="0.913" r="0.913" transform="translate(5.297 4.566)" fill="#ffe799"/>
    </g>
    <g id="Grupo_257" data-name="Grupo 257" transform="translate(4.485 22.648)">
      <circle id="Elipse_87" data-name="Elipse 87" cx="2.009" cy="2.009" r="2.009" fill="#ff7f15"/>
      <circle id="Elipse_88" data-name="Elipse 88" cx="0.913" cy="0.913" r="0.913" transform="translate(4.384 5.845)" fill="#ff7f15"/>
      <circle id="Elipse_89" data-name="Elipse 89" cx="0.365" cy="0.365" r="0.365" transform="translate(7.306 9.132)" fill="#ff7f15"/>
      <path id="Trazado_378" data-name="Trazado 378" d="M48.918,128.791s6.027,8.219-1.279,9.315-7.489,7.489-3.1,10.046c4.384,2.374,7.123-3.836,4.384-4.749,0,0,.183,4.384-4.018,2.192-4.2-2.374-1.644-7.489,6.027-6.941,7.671.731,6.941-4.749,3.836-7.306C51.658,128.609,48.918,128.791,48.918,128.791Z" transform="translate(-36.133 -122.034)" fill="#ff7f15"/>
    </g>
    <path id="Trazado_379" data-name="Trazado 379" d="M159.437,245.863h-.913c-6.21,0-11.324,3.47-11.324,8.95H164c1.644,0,3.836,1.461,5.662,1.461V236A10.385,10.385,0,0,0,159.437,245.863Z" transform="translate(-113.126 -182.119)" fill="#ffc217"/>
    <path id="Trazado_380" data-name="Trazado 380" d="M257.837,270.74s5.845-6.941,20.274,7.488c12.055,11.872,22.1-3.47,17.169-10.411,0,0,.548-5.3,4.566,6.027s-3.1,24.475-19.543,21c-16.438-3.653-18.265-8.767-27.032-7.671s-7.854-6.393-8.219-8.036,0-10.228,0-10.228Z" transform="translate(-188.512 -205.718)" fill="#890000"/>
    <path id="Trazado_381" data-name="Trazado 381" d="M281.1,302.736c-16.438-3.653-18.265-8.767-27.032-7.671s-7.854-6.393-8.219-8.036,0-10.228,0-10.228l12.6,2.009" transform="translate(-189.129 -213.604)" fill="#5e0404"/>
    <path id="Trazado_382" data-name="Trazado 382" d="M359.874,64.8s4.384,33.242-15.525,40.913l3.653,4.2H338.87v6.21l-10.959-10.959S310.743,91.1,331.564,77.4A95.885,95.885,0,0,1,359.874,64.8Z" transform="translate(-247.445 -50.006)" fill="#a80404"/>
    <path id="Trazado_383" data-name="Trazado 383" d="M367.043,64.8s4.384,33.242-15.525,40.913l3.653,4.2h-9.132v6.21L335.08,105.165S321.2,90.918,342.02,77.22C356.814,67.357,367.043,64.8,367.043,64.8Z" transform="translate(-254.613 -50.006)" fill="#890000"/>
    <path id="Trazado_384" data-name="Trazado 384" d="M346.038,109.914v6.21L335.08,105.165S321.2,90.918,342.02,77.22C357,67.357,367.043,64.8,367.043,64.8" transform="translate(-254.613 -50.006)" fill="#5e0404"/>
    <path id="Trazado_385" data-name="Trazado 385" d="M292.8,175.664a12.6,12.6,0,0,0,25.205,0c0-6.758-5.662-14.064-12.6-14.064C298.462,161.783,292.8,168.906,292.8,175.664Z" transform="translate(-225.484 -124.705)" fill="#ffa412"/>
    <ellipse id="Elipse_90" data-name="Elipse 90" cx="12.603" cy="12.42" rx="12.603" ry="12.42" transform="translate(67.498 38.538)" fill="#a80404"/>
    <path id="Trazado_386" data-name="Trazado 386" d="M315,172.762a13.025,13.025,0,0,0-17.9,0,12.239,12.239,0,0,0,0,17.534" transform="translate(-225.947 -130.57)" fill="#890000"/>
    <ellipse id="Elipse_91" data-name="Elipse 91" cx="9.863" cy="9.498" rx="9.863" ry="9.498" transform="translate(70.238 41.461)" fill="#ffa412"/>
    <path id="Trazado_387" data-name="Trazado 387" d="M315.463,181.6a9.5,9.5,0,1,0,0,19" transform="translate(-235.362 -140.139)" fill="#ff7f15"/>
    <ellipse id="Elipse_92" data-name="Elipse 92" cx="5.114" cy="4.931" rx="5.114" ry="4.931" transform="translate(74.987 46.027)" fill="#5e0404"/>
    <path id="Trazado_388" data-name="Trazado 388" d="M331.514,201.6a5.069,5.069,0,0,0-5.114,4.931,4.954,4.954,0,0,0,5.114,4.931" transform="translate(-251.413 -155.573)" fill="#350202"/>
    <g id="Grupo_258" data-name="Grupo 258" transform="translate(77.179 46.94)">
      <ellipse id="Elipse_93" data-name="Elipse 93" cx="1.644" cy="1.461" rx="1.644" ry="1.461" transform="translate(3.836)" fill="#ffe799"/>
      <circle id="Elipse_94" data-name="Elipse 94" cx="0.913" cy="0.913" r="0.913" transform="translate(0 4.566)" fill="#ffe799"/>
    </g>
    <g id="Grupo_259" data-name="Grupo 259" transform="translate(88.12 22.648)">
      <circle id="Elipse_95" data-name="Elipse 95" cx="2.009" cy="2.009" r="2.009" transform="translate(16.821)" fill="#ff7f15"/>
      <circle id="Elipse_96" data-name="Elipse 96" cx="0.913" cy="0.913" r="0.913" transform="translate(14.629 5.845)" fill="#ff7f15"/>
      <circle id="Elipse_97" data-name="Elipse 97" cx="0.365" cy="0.365" r="0.365" transform="translate(12.803 9.132)" fill="#ff7f15"/>
      <path id="Trazado_389" data-name="Trazado 389" d="M391.976,128.791s-6.027,8.219,1.279,9.315,7.488,7.489,3.1,10.046c-4.384,2.374-7.123-3.836-4.384-4.749,0,0-.183,4.384,4.018,2.192,4.2-2.374,1.644-7.489-6.027-6.941-7.671.731-6.941-4.749-3.836-7.306C389.237,128.609,391.976,128.791,391.976,128.791Z" transform="translate(-383.922 -122.034)" fill="#ff7f15"/>
    </g>
    <path id="Trazado_390" data-name="Trazado 390" d="M257.428,245.863h.913c6.21,0,11.324,3.47,11.324,8.95h-16.8c-1.644,0-3.836,1.461-5.662,1.461V236A10.385,10.385,0,0,1,257.428,245.863Z" transform="translate(-190.295 -182.119)" fill="#ffc217"/>
    <path id="Trazado_391" data-name="Trazado 391" d="M202.06,254.813,183.43,236h0L164.8,254.813h12.968c1.644,0,3.836,1.461,5.662,1.461h0c1.826,0,4.018-1.461,5.662-1.461Z" transform="translate(-126.708 -182.119)" fill="#ff7f15"/>
    <g id="Grupo_260" data-name="Grupo 260" transform="translate(55.444 58.812)">
      <circle id="Elipse_98" data-name="Elipse 98" cx="1.279" cy="1.279" r="1.279" fill="#a80404"/>
      <circle id="Elipse_99" data-name="Elipse 99" cx="1.279" cy="1.279" r="1.279" transform="translate(0 4.931)" fill="#a80404"/>
      <circle id="Elipse_100" data-name="Elipse 100" cx="1.279" cy="1.279" r="1.279" transform="translate(0 9.863)" fill="#a80404"/>
    </g>
    <path id="Trazado_392" data-name="Trazado 392" d="M219.448,104.318a11.326,11.326,0,0,1-22.648,0c0-6.21,5.114-21.918,11.324-21.918S219.448,98.29,219.448,104.318Z" transform="translate(-151.402 -63.587)" fill="#ffc217"/>
    <path id="Trazado_393" data-name="Trazado 393" d="M246.4,83.2c6.393,0,11.324,15.708,11.324,21.918A11.226,11.226,0,0,1,246.4,116.259" transform="translate(-189.678 -64.205)" fill="#ffa412"/>
    <g id="Grupo_261" data-name="Grupo 261" transform="translate(50.695 36.529)">
      <path id="Trazado_394" data-name="Trazado 394" d="M221.279,184.226c-.731,0-1.279-.183-1.279-.913h0c0-.731.548-.913,1.279-.913h9.5c.731,0,1.279.183,1.279.913h0c0,.731-.548.913-1.279.913Z" transform="translate(-220 -177.286)" fill="#5e0404"/>
      <path id="Trazado_395" data-name="Trazado 395" d="M242.4,161.279c0-.731.183-1.279.913-1.279h0c.731,0,.913.548.913,1.279v9.5c0,.731-.183,1.279-.913,1.279h0c-.731,0-.913-.548-.913-1.279Z" transform="translate(-237.286 -160)" fill="#5e0404"/>
      <circle id="Elipse_101" data-name="Elipse 101" cx="1.096" cy="1.096" r="1.096" transform="translate(0.365 0.365)" fill="#5e0404"/>
      <circle id="Elipse_102" data-name="Elipse 102" cx="1.096" cy="1.096" r="1.096" transform="translate(9.498 0.365)" fill="#5e0404"/>
      <circle id="Elipse_103" data-name="Elipse 103" cx="1.096" cy="1.096" r="1.096" transform="translate(0.365 9.68)" fill="#5e0404"/>
      <circle id="Elipse_104" data-name="Elipse 104" cx="1.096" cy="1.096" r="1.096" transform="translate(9.498 9.68)" fill="#5e0404"/>
    </g>
    <g id="Grupo_262" data-name="Grupo 262" transform="translate(52.704 25.023)">
      <circle id="Elipse_105" data-name="Elipse 105" cx="0.731" cy="0.731" r="0.731" transform="translate(3.105 1.279)" fill="#8c0000"/>
      <path id="Trazado_396" data-name="Trazado 396" d="M232.818,109.6a3.84,3.84,0,1,0,4.018,3.836A3.9,3.9,0,0,0,232.818,109.6Zm-.183,6.393a.731.731,0,1,1,.731-.731A.669.669,0,0,1,232.636,115.993Zm.183-2.557c-.913.365-1.826.548-1.826,1.826a1.83,1.83,0,0,0,1.826,1.826,3.631,3.631,0,0,1-3.653-3.47,3.512,3.512,0,0,1,3.653-3.47,1.83,1.83,0,0,1,1.826,1.826C234.645,112.888,233.731,113.07,232.818,113.436Z" transform="translate(-228.8 -109.6)" fill="#8c0000"/>
    </g>
    <g id="Grupo_263" data-name="Grupo 263" transform="translate(14.896 63.013)">
      <path id="Trazado_397" data-name="Trazado 397" d="M63.2,276l7.671,7.488-3.653,3.47Z" transform="translate(-63.2 -276)" fill="#5e0404"/>
      <path id="Trazado_398" data-name="Trazado 398" d="M403.671,276,396,283.488l3.653,3.47Z" transform="translate(-320.019 -276)" fill="#5e0404"/>
    </g>
    <g id="Grupo_264" data-name="Grupo 264" transform="translate(29.962 14.253)">
      <path id="Trazado_399" data-name="Trazado 399" d="M129.283,65.71s-1.1,6.21,4.2,6.393c5.479,0,6.941,2.009,6.941,4.018s-2.009,4.018-4.566,2.009-.365-4.2,2.192-2.557c0,0-1.644-1.826-3.288-.548s1.279,5.3,4.566,3.836c3.47-1.461,1.1-8.036-4.018-9.132s-5.845-4.384-4.749-5.662,4.383,1.461,2.192,2.74c0,0,3.47-1.644.548-3.47-3.288-2.009-3.653-.183-3.836.731A10.1,10.1,0,0,1,129.283,65.71Z" transform="translate(-129.189 -62.429)" fill="#ffc217"/>
      <circle id="Elipse_106" data-name="Elipse 106" cx="0.183" cy="0.183" r="0.183" transform="translate(12.696 16.432)" fill="#ffc217"/>
      <path id="Trazado_400" data-name="Trazado 400" d="M193.1,139.565c.183.365,0,.731-.365.731-.365.183-.731,0-.731-.365s0-.731.365-.731A.729.729,0,0,1,193.1,139.565Z" transform="translate(-177.66 -121.673)" fill="#ffc217"/>
      <circle id="Elipse_107" data-name="Elipse 107" cx="0.183" cy="0.183" r="0.183" transform="translate(16.349 18.623)" fill="#ffc217"/>
      <circle id="Elipse_108" data-name="Elipse 108" cx="0.183" cy="0.183" r="0.183" transform="translate(17.993 19.354)" fill="#ffc217"/>
      <circle id="Elipse_109" data-name="Elipse 109" cx="0.365" cy="0.365" r="0.365" transform="translate(8.496 13.875)" fill="#ffc217"/>
      <path id="Trazado_401" data-name="Trazado 401" d="M140.854,74.523c.183.365,0,.548-.365.731s-.548,0-.731-.365,0-.548.365-.731S140.854,74.158,140.854,74.523Z" transform="translate(-137.29 -71.425)" fill="#ffc217"/>
      <path id="Trazado_402" data-name="Trazado 402" d="M151.2,76.774a2.526,2.526,0,0,0,1.1-2.374s1.279,1.644.183,2.192C151.565,76.957,151.2,76.774,151.2,76.774Z" transform="translate(-146.175 -71.667)" fill="#ffc217"/>
      <path id="Trazado_403" data-name="Trazado 403" d="M156,85.531l1.279-.731s-.183,1.1-.548.913A4.144,4.144,0,0,1,156,85.531Z" transform="translate(-149.879 -79.693)" fill="#ffc217"/>
      <path id="Trazado_404" data-name="Trazado 404" d="M175.4,68.983c0,.183,0,.183-.183.365l-3.653,1.1c-.183,0-.183,0-.365-.183h0c0-.183,0-.183.183-.365l3.653-1.1a.638.638,0,0,1,.365.183Z" transform="translate(-161.609 -67.345)" fill="#ffc217"/>
      <path id="Trazado_405" data-name="Trazado 405" d="M178.6,77.165c0,.183,0,.183-.183.183l-3.653,1.1c-.183,0-.183,0-.365-.183h0c0-.183,0-.183.183-.365l3.653-1.1c.183.183.365.183.365.365Z" transform="translate(-164.078 -73.519)" fill="#ffc217"/>
      <path id="Trazado_406" data-name="Trazado 406" d="M181.984,85.783c0,.183,0,.183-.183.365l-3.836,1.1c-.183,0-.183,0-.365-.183h0c0-.183,0-.183.183-.365l3.653-1.1a.8.8,0,0,1,.548.183Z" transform="translate(-166.547 -80.31)" fill="#ffc217"/>
      <path id="Trazado_407" data-name="Trazado 407" d="M185.8,94.583c0,.183,0,.183-.183.365l-3.653,1.1c-.183,0-.183,0-.365-.183h0c0-.183,0-.183.183-.365l3.653-1.1c.183,0,.365,0,.365.183Z" transform="translate(-169.634 -87.101)" fill="#ffc217"/>
      <path id="Trazado_408" data-name="Trazado 408" d="M323.091,65.71s1.1,6.21-4.2,6.393c-5.479,0-6.941,2.009-6.941,4.018s2.009,4.018,4.566,2.009.365-4.2-2.374-2.557c0,0,1.644-1.826,3.288-.548s-1.279,5.3-4.566,3.836c-3.47-1.461-1.1-8.036,4.018-9.132s5.845-4.384,4.749-5.662-4.384,1.461-2.192,2.74c0,0-3.47-1.644-.548-3.47,3.288-2.009,3.653-.183,3.836.731C322.909,64.8,323.091,65.71,323.091,65.71Z" transform="translate(-269.665 -62.429)" fill="#ffc217"/>
      <circle id="Elipse_110" data-name="Elipse 110" cx="0.183" cy="0.183" r="0.183" transform="translate(40.459 16.432)" fill="#ffc217"/>
      <circle id="Elipse_111" data-name="Elipse 111" cx="0.548" cy="0.548" r="0.548" transform="translate(38.11 17.547)" fill="#ffc217"/>
      <circle id="Elipse_112" data-name="Elipse 112" cx="0.183" cy="0.183" r="0.183" transform="translate(36.806 18.623)" fill="#ffc217"/>
      <path id="Trazado_409" data-name="Trazado 409" d="M283.2,146.583a.183.183,0,1,0,.183-.183C283.383,146.583,283.383,146.583,283.2,146.583Z" transform="translate(-248.038 -127.229)" fill="#ffc217"/>
      <circle id="Elipse_113" data-name="Elipse 113" cx="0.365" cy="0.365" r="0.365" transform="translate(44.294 13.875)" fill="#ffc217"/>
      <path id="Trazado_410" data-name="Trazado 410" d="M347.758,74.523c-.183.365,0,.548.365.731s.548,0,.731-.365,0-.548-.365-.731S347.758,74.158,347.758,74.523Z" transform="translate(-297.801 -71.425)" fill="#ffc217"/>
      <path id="Trazado_411" data-name="Trazado 411" d="M335.778,76.774a2.526,2.526,0,0,1-1.1-2.374s-1.279,1.644-.183,2.192C335.413,76.957,335.778,76.774,335.778,76.774Z" transform="translate(-287.283 -71.667)" fill="#ffc217"/>
      <path id="Trazado_412" data-name="Trazado 412" d="M332.479,85.531,331.2,84.8s.183,1.1.548.913A4.144,4.144,0,0,0,332.479,85.531Z" transform="translate(-285.079 -79.693)" fill="#ffc217"/>
      <path id="Trazado_413" data-name="Trazado 413" d="M303.2,68.983c0,.183,0,.183.183.365l3.653,1.1c.183,0,.183,0,.365-.183h0c0-.183,0-.183-.183-.365l-3.653-1.1a.638.638,0,0,0-.365.183Z" transform="translate(-263.472 -67.345)" fill="#ffc217"/>
      <path id="Trazado_414" data-name="Trazado 414" d="M300,77.165c0,.183,0,.183.183.183l3.653,1.1c.183,0,.183,0,.365-.183h0c0-.183,0-.183-.183-.365l-3.653-1.1c-.183.183-.365.183-.365.365Z" transform="translate(-261.002 -73.519)" fill="#ffc217"/>
      <path id="Trazado_415" data-name="Trazado 415" d="M296,85.783c0,.183,0,.183.183.365l3.836,1.1c.183,0,.183,0,.365-.183h0c0-.183,0-.183-.183-.365l-3.653-1.1a.8.8,0,0,0-.548.183Z" transform="translate(-257.916 -80.31)" fill="#ffc217"/>
      <path id="Trazado_416" data-name="Trazado 416" d="M292.8,94.583c0,.183,0,.183.183.365l3.653,1.1c.183,0,.183,0,.365-.183h0c0-.183,0-.183-.183-.365l-3.653-1.1c-.183,0-.365,0-.365.183Z" transform="translate(-255.446 -87.101)" fill="#ffc217"/>
    </g>
  </g>
</svg>
