<svg xmlns="http://www.w3.org/2000/svg" width="87.272" height="111.284" viewBox="0 0 87.272 111.284"><g transform="translate(0)"><g transform="translate(1.318 1.318)"><path d="M99.8,67.832a42.318,42.318,0,0,1-84.636,0C15.166,44.459,34.112,1.5,57.485,1.5S99.8,44.459,99.8,67.832Z" transform="translate(-15.166 -1.5)" fill="#fffffa"/></g><g transform="translate(43.637 1.318)"><path d="M63.334,1.5V110.149a42.317,42.317,0,0,0,42.317-42.317C105.651,44.459,86.706,1.5,63.334,1.5Z" transform="translate(-63.334 -1.5)" fill="#f9f9e4"/></g><g transform="translate(8.068 84.145)"><g transform="translate(0)"><path d="M32.194,103.288c3.905,4.267,8.206,6.357,5.92,8.449s-7.306.326-11.212-3.941-5.215-9.424-2.927-11.517S28.291,99.017,32.194,103.288Z" transform="translate(-22.849 -95.775)" fill="#7bc67b"/></g><g transform="translate(55.233)"><path d="M92.274,103.288c-3.905,4.267-8.206,6.357-5.92,8.449s7.306.326,11.212-3.941,5.215-9.424,2.927-11.517S96.177,99.017,92.274,103.288Z" transform="translate(-85.716 -95.775)" fill="#54af79"/></g></g><g transform="translate(0)"><path d="M57.3,111.284A43.685,43.685,0,0,1,13.666,67.65c0-12.249,4.931-28.961,12.563-42.575C35.293,8.905,46.329,0,57.3,0S79.312,8.905,88.375,25.074C96.007,38.689,100.938,55.4,100.938,67.65A43.684,43.684,0,0,1,57.3,111.284Zm0-108.649C43.84,2.636,33.5,17.5,28.528,26.363,21.1,39.613,16.3,55.819,16.3,67.65a41,41,0,0,0,82,0c0-11.831-4.8-28.037-12.226-41.286C81.11,17.5,70.765,2.636,57.3,2.636Z" transform="translate(-13.666)" fill="#33363a"/></g><g transform="translate(38.53 49.297)"><path d="M87.482,85.419c-5.507,11.926-16.751,18.464-25.117,14.6s-4.479-10.885,1.028-22.812S73.938,52.97,82.3,56.834,92.987,73.494,87.482,85.419Z" transform="translate(-57.521 -56.111)" fill="#7bc67b"/></g><g transform="translate(43.638 49.297)"><path d="M83.01,56.834C74.645,52.971,69.6,65.284,64.1,77.209l-.765,1.652V100.13c8.336,3.61,19.406-2.907,24.854-14.711C93.693,73.494,91.375,60.694,83.01,56.834Z" transform="translate(-63.335 -56.111)" fill="#54af79"/></g><g transform="translate(16.614 31.178)"><ellipse cx="2.688" cy="2.688" rx="2.688" ry="2.688" transform="translate(0)" fill="#7bc67b"/></g><g transform="translate(27.952 19.955)"><ellipse cx="1.052" cy="1.052" rx="1.052" ry="1.052" transform="translate(0)" fill="#7bc67b"/></g><g transform="translate(21.991 47.776)"><ellipse cx="1.52" cy="1.52" rx="1.52" ry="1.52" transform="translate(0)" fill="#7bc67b"/></g><g transform="translate(45.682 97.948)"><ellipse cx="1.52" cy="1.52" rx="1.52" ry="1.52" fill="#54af79"/></g><g transform="translate(38.53 96.428)"><ellipse cx="1.52" cy="1.52" rx="1.52" ry="1.52" fill="#7bc67b"/></g><g transform="translate(58.58 23.229)"><ellipse cx="3.108" cy="3.107" rx="3.108" ry="3.107" transform="translate(0)" fill="#54af79"/></g><g transform="translate(67.463 36.554)"><ellipse cx="3.04" cy="3.04" rx="3.04" ry="3.04" transform="translate(0)" fill="#54af79"/></g><g transform="translate(24.198 77.303)"><ellipse cx="3.039" cy="3.039" rx="3.039" ry="3.039" transform="translate(0)" fill="#7bc67b"/></g><g transform="translate(29.959 22.849)"><path d="M64.716,38.909c0,7.123,3.073,12.9-4.051,12.9a12.9,12.9,0,0,1,0-25.8C67.79,26.008,64.716,31.785,64.716,38.909Z" transform="translate(-47.766 -26.007)" fill="#7bc67b"/></g><g transform="translate(43.637 22.88)"><path d="M63.334,51.783c6.107-.423,3.273-6.022,3.273-12.869s2.835-12.448-3.273-12.872Z" transform="translate(-63.334 -26.042)" fill="#54af79"/></g></g></svg>