<svg xmlns="http://www.w3.org/2000/svg" width="69" height="90.922" viewBox="0 0 69 90.922">
  <g id="IconBoleta" transform="translate(-61.723)">
    <rect id="Rectángulo_167" data-name="Rectángulo 167" width="63.575" height="21.389" transform="translate(64.434 2.712)" fill="#cee8fa"/>
    <g id="Grupo_214" data-name="Grupo 214" transform="translate(61.723)">
      <path id="Trazado_279" data-name="Trazado 279" d="M128.011,0H64.435a2.712,2.712,0,0,0-2.712,2.712V83.1A6.052,6.052,0,0,0,72.054,87.38a4.04,4.04,0,0,1,5.713,0,12.124,12.124,0,0,0,17.126,0,2.712,2.712,0,0,0-3.836-3.836,6.694,6.694,0,0,1-9.455,0,9.475,9.475,0,0,0-13.385,0,.627.627,0,0,1-1.071-.444V26.813H125.3V83.1a.627.627,0,0,1-1.071.443,9.476,9.476,0,0,0-13.384,0L108.7,85.693a2.712,2.712,0,0,0,3.836,3.836l2.148-2.148a4.04,4.04,0,0,1,5.713,0A6.052,6.052,0,0,0,130.723,83.1V2.712A2.712,2.712,0,0,0,128.011,0ZM67.147,21.389V5.424H125.3V21.389Z" transform="translate(-61.723)" fill="#2d527c"/>
      <path id="Trazado_280" data-name="Trazado 280" d="M291.373,247.032H276.364a2.712,2.712,0,1,1,0-5.424h15.008a2.712,2.712,0,0,1,0,5.424Z" transform="translate(-236.017 -198.703)" fill="#2d527c"/>
      <path id="Trazado_281" data-name="Trazado 281" d="M291.373,331.031H276.364a2.712,2.712,0,0,1,0-5.424h15.008a2.712,2.712,0,0,1,0,5.424Z" transform="translate(-236.017 -267.785)" fill="#2d527c"/>
      <path id="Trazado_282" data-name="Trazado 282" d="M149.94,219.465a18.872,18.872,0,0,0-5.158-2.09v-6.832a2.858,2.858,0,0,1,1.79,1.283,4.437,4.437,0,0,1,.6,1.915.95.95,0,0,0,.945.858H151.2a.949.949,0,0,0,.949-.974,7.633,7.633,0,0,0-2.255-5.482,8.784,8.784,0,0,0-5.112-2.243v-1.463a.949.949,0,0,0-.949-.949H142.15a.949.949,0,0,0-.949.949v1.454a8,8,0,0,0-7.5,7.944,7.008,7.008,0,0,0,2.136,5.4,11.569,11.569,0,0,0,5.364,2.5v7.779a3.342,3.342,0,0,1-2.321-1.608,7.8,7.8,0,0,1-.661-3.136.949.949,0,0,0-.947-.888h-3.108a.949.949,0,0,0-.949.949,10.682,10.682,0,0,0,1.11,5.288c1.281,2.3,3.592,3.664,6.876,4.056v2.238a.949.949,0,0,0,.949.949h1.683a.949.949,0,0,0,.949-.949v-2.271a11.436,11.436,0,0,0,4.458-1.484c2.338-1.514,3.513-4.037,3.494-7.492A6.522,6.522,0,0,0,149.94,219.465Zm-11.164-5.832a3.675,3.675,0,0,1,.805-2.221,2.615,2.615,0,0,1,1.619-.915v6.015a5.14,5.14,0,0,1-1.58-.861A2.449,2.449,0,0,1,138.776,213.632Zm6.006,9.041a6.754,6.754,0,0,1,1.645.767,2.907,2.907,0,0,1,1.232,2.588,4.059,4.059,0,0,1-.486,2.018,3.233,3.233,0,0,1-2.391,1.6v-6.973h0Z" transform="translate(-120.519 -167.351)" fill="#2d527c"/>
    </g>
  </g>
</svg>
