<svg xmlns="http://www.w3.org/2000/svg" width="111.283" height="111.285" viewBox="0 0 111.283 111.285"><g transform="translate(0)"><g transform="translate(0 0)"><path d="M33.67,95.875c6.47,2.925,9.3,14.524,9.3,14.524l47.343-.13a46.657,46.657,0,0,0-3.018-5.332,39.188,39.188,0,0,1-2.25-5.666,64.984,64.984,0,0,1-2.292-11.483,33.882,33.882,0,0,1,2.609-17.542C87.49,65.4,91.181,61.558,94,57.12A27.257,27.257,0,0,0,98.322,42.6a54.831,54.831,0,0,0-1.9-15.467A29.221,29.221,0,0,0,85.794,11.88C76.454,4.546,66.91.446,54.829,1.06a124.332,124.332,0,0,0-17.971,2.58c-6.447,1.3-13.273,3.708-17.9,8.593A34.116,34.116,0,0,0,11.79,23.929a54.1,54.1,0,0,0-1.8,6.6,58.282,58.282,0,0,1-2.79,7.122A4.657,4.657,0,0,0,6.8,39.9c.366,2.61,4.278,3.729,4.308,6.424A3.707,3.707,0,0,1,10.576,48a73.774,73.774,0,0,1-8.4,13.673C1.4,62.629-.179,64.506.017,65.853c.14.956,1.286,1.75,1.994,2.277,1.509,1.12,4.581,1.886,4.964,3.908a5.076,5.076,0,0,1-.355,3.052c-1.045,2.2-2.2,3.374-1.381,4.065S8.258,81.5,8.258,81.5s-2.086,2.667-.932,3.486c1.435,1.019,3.259,1.488,3.748,3.4a11.749,11.749,0,0,1-.445,4.489,9.178,9.178,0,0,0,.543,4.2,5.14,5.14,0,0,0,6.053,3.759A158.288,158.288,0,0,0,33.67,95.875" transform="translate(0 0.886)" fill="#fb7b76"/><path d="M55.3,60.813c0-6.581,7.394-9.41,11.085-13.53a23.9,23.9,0,0,0,5.885-16.221A23.257,23.257,0,0,0,49.637,8,23.259,23.259,0,0,0,27,31.061a23.9,23.9,0,0,0,5.885,16.221c3.7,4.121,11.091,6.951,11.091,13.531Z" transform="translate(23.924 7.089)" fill="#f0c419" fill-rule="evenodd"/><path d="M9.923,28.233a1.886,1.886,0,0,1-1.426-2.3,35.039,35.039,0,0,1,1.113-3.87,28.623,28.623,0,0,1,5.975-9.782c3.063-3.229,8.086-5.568,14.931-6.93a1.887,1.887,0,0,1,.736,3.7c-6.062,1.205-10.412,3.165-12.926,5.821a24.847,24.847,0,0,0-5.176,8.488,31.573,31.573,0,0,0-.988,3.461A1.886,1.886,0,0,1,9.923,28.233Z" transform="translate(7.48 4.713)" fill="#ecf0f1"/><ellipse cx="1.886" cy="1.886" rx="1.886" ry="1.886" transform="translate(13.203 37.724)" fill="#ecf0f1"/><path d="M36,42H47.317v1.886a5.658,5.658,0,1,1-11.317,0Z" transform="translate(31.902 37.22)" fill="#95a5a5"/><path d="M61.545,22.772H55.886a1.886,1.886,0,0,1,0-3.772h5.659a1.886,1.886,0,0,1,0,3.772Z" transform="translate(47.853 16.838)" fill="#f0c419"/><path d="M51.2,13.351a1.886,1.886,0,0,1-1.334-3.222l4-4A1.886,1.886,0,1,1,56.536,8.8l-4,4A1.886,1.886,0,0,1,51.2,13.351Z" transform="translate(43.698 4.921)" fill="#f0c419"/><path d="M39.886,9.431A1.886,1.886,0,0,1,38,7.545V1.886a1.886,1.886,0,1,1,3.772,0V7.545A1.886,1.886,0,0,1,39.886,9.431Z" transform="translate(33.674 0)" fill="#f0c419"/><path d="M30.465,13.351a1.886,1.886,0,0,1-1.335-.553l-4-4A1.886,1.886,0,1,1,27.8,6.129l4,4a1.886,1.886,0,0,1-1.334,3.222Z" transform="translate(21.757 4.921)" fill="#f0c419"/><path d="M26.545,22.772H20.886a1.886,1.886,0,0,1,0-3.772h5.658a1.886,1.886,0,0,1,0,3.772Z" transform="translate(16.837 16.838)" fill="#f0c419"/><ellipse cx="16.975" cy="18.862" rx="16.975" ry="18.862" transform="translate(56.585 15.089)" fill="#f3d55b"/><path d="M48.975,53.838a1.886,1.886,0,0,1-1.886-1.886V29.317H43.317V51.951a1.886,1.886,0,1,1-3.772,0V29.317H37.659a5.659,5.659,0,1,1,5.659-5.659v1.886h3.772V23.659a5.659,5.659,0,1,1,5.658,5.659H50.862V51.951A1.886,1.886,0,0,1,48.975,53.838Zm1.886-28.293h1.886a1.886,1.886,0,1,0-1.886-1.886Zm-13.2-3.772a1.886,1.886,0,0,0,0,3.772h1.886V23.659A1.886,1.886,0,0,0,37.659,21.772Z" transform="translate(28.357 15.951)" fill="#f29c1f"/><rect width="18.862" height="11.317" rx="2" transform="translate(64.131 67.903)" fill="#bdc3c7"/></g></g></svg>