<svg xmlns="http://www.w3.org/2000/svg" width="31.939" height="25.826" viewBox="0 0 31.939 25.826">
  <g id="Info" transform="translate(0 -3.057)">
    <g id="Grupo_244" data-name="Grupo 244">
      <path id="Trazado_349" data-name="Trazado 349" d="M15.58,18.332H14.8a.729.729,0,0,1-.73-.729.554.554,0,0,1,.167-.4,5.239,5.239,0,0,0,1.107-1.667.312.312,0,0,0,.184.071c.436,0,.95-.964.95-1.621s-.061-1.19-.5-1.19a.673.673,0,0,0-.162.023c-.031-1.782-.481-4.005-3.2-4.005-2.839,0-3.17,2.219-3.2,4A.623.623,0,0,0,9.3,12.8c-.437,0-.5.533-.5,1.19s.512,1.621.949,1.621a.3.3,0,0,0,.151-.042A5.255,5.255,0,0,0,11,17.209a.55.55,0,0,1,.167.4.73.73,0,0,1-.73.73H9.656a3.009,3.009,0,0,0-3.009,3.009v.834a.95.95,0,0,0,.95.95H17.639a.95.95,0,0,0,.949-.95v-.834A3.009,3.009,0,0,0,15.58,18.332Z" fill="#4b66d4"/>
      <path id="Trazado_350" data-name="Trazado 350" d="M24.589,10.077H16.168a6.192,6.192,0,0,1,.489,2.019,1.222,1.222,0,0,1,.425.506h7.507a.7.7,0,0,0,.7-.7V10.781A.7.7,0,0,0,24.589,10.077Z" fill="#4b66d4"/>
      <path id="Trazado_351" data-name="Trazado 351" d="M24.589,14.678H17.254a2.438,2.438,0,0,1-1.368,1.749c-.02.037-.043.069-.064.106v.67h8.766a.7.7,0,0,0,.7-.7V15.382A.7.7,0,0,0,24.589,14.678Z" fill="#4b66d4"/>
      <path id="Trazado_352" data-name="Trazado 352" d="M24.589,19.279H18.863a3.844,3.844,0,0,1,.6,2.062V21.8h5.126a.7.7,0,0,0,.7-.7V19.983A.7.7,0,0,0,24.589,19.279Z" fill="#4b66d4"/>
      <path id="Trazado_353" data-name="Trazado 353" d="M27.615,3.057H4.325A4.325,4.325,0,0,0,0,7.382V24.558a4.324,4.324,0,0,0,4.325,4.325h23.29a4.324,4.324,0,0,0,4.324-4.325V7.382A4.324,4.324,0,0,0,27.615,3.057Zm2.283,21.5a2.285,2.285,0,0,1-2.283,2.283H4.325a2.285,2.285,0,0,1-2.283-2.283V7.382A2.285,2.285,0,0,1,4.325,5.1h23.29A2.285,2.285,0,0,1,29.9,7.382V24.558Z" fill="#4b66d4"/>
    </g>
  </g>
</svg>
