<svg xmlns="http://www.w3.org/2000/svg" width="103.718" height="111.285" viewBox="0 0 103.718 111.285"><g transform="translate(0)"><g transform="translate(0)"><path d="M12.6,94.119a6.955,6.955,0,0,1-2.382-9.546l3.693-6.156H0L13.594,55.762a6.955,6.955,0,0,1,2.382,9.546l-3.693,6.156H26.194Zm0,0" transform="translate(0 -43.642)" fill="#f7d260"/><path d="M146.807,111.285l4.4-41.732H119.215L138.534,0H184.14L170.229,45.209H197.02Zm0,0" transform="translate(-93.303)" fill="#f7d260"/><path d="M332.258,448h6.955v6.955h-6.955Zm0,0" transform="translate(-260.041 -350.626)" fill="#f7d260"/><path d="M396.258,448h6.955v6.955h-6.955Zm0,0" transform="translate(-310.13 -350.626)" fill="#f7d260"/></g><path d="M220.258,128h6.955v6.955h-6.955Zm0,0" transform="translate(-172.384 -100.179)" fill="#fff"/><path d="M236.258,48h6.955v6.955h-6.955Zm0,0" transform="translate(-184.907 -37.567)" fill="#fff"/></g></svg>