<svg xmlns="http://www.w3.org/2000/svg" xmlns:xlink="http://www.w3.org/1999/xlink" width="63.906" height="64" viewBox="0 0 63.906 64">
  <defs>
    <linearGradient id="linear-gradient" x1="0.179" y1="0.057" x2="0.881" y2="0.915" gradientUnits="objectBoundingBox">
      <stop offset="0" stop-color="#8796e1"/>
      <stop offset="1" stop-color="#8d64cb"/>
    </linearGradient>
  </defs>
  <g id="Logo" transform="translate(-350 -816)">
    <path id="Sustracción_2" data-name="Sustracción 2" d="M-3948.092,64a31.891,31.891,0,0,1-21.8-8.578A31.886,31.886,0,0,1-3980,34.445a114.583,114.583,0,0,1,28.754-11.634,82.281,82.281,0,0,1,19.866-2.351,100.954,100.954,0,0,1,13.488.936,31.927,31.927,0,0,1,1.8,10.6,31.79,31.79,0,0,1-9.372,22.63A31.8,31.8,0,0,1-3948.092,64Zm1.777-24.89a7.12,7.12,0,0,0-7.111,7.112,7.12,7.12,0,0,0,7.111,7.112,7.119,7.119,0,0,0,7.11-7.112A7.119,7.119,0,0,0-3946.314,39.11ZM-3979.8,27.641v0A31.971,31.971,0,0,1-3969.22,7.966,31.962,31.962,0,0,1-3948.092,0a31.977,31.977,0,0,1,15.977,4.269,32.213,32.213,0,0,1,11.45,11.237,81.107,81.107,0,0,0-15.7-1.582,68.672,68.672,0,0,0-16.6,1.989,88.3,88.3,0,0,0-26.828,11.727Z" transform="translate(4330 816)" fill="url(#linear-gradient)"/>
  </g>
</svg>
