<svg xmlns="http://www.w3.org/2000/svg" width="138.303" height="111.284" viewBox="0 0 138.303 111.284"><g transform="translate(0)"><path d="M78.769,104.36v78.011c1.188,10.049,22.042,18.152,47.541,18.152s46.353-8,47.541-18.152h.108V104.36Z" transform="translate(-57.159 -89.238)" fill="#324d5b"/><path d="M78.769,145.31c12.426,4.754,29.173,7.78,47.541,7.78,18.476,0,35.116-2.917,47.541-7.78V104.36H78.769Z" transform="translate(-57.159 -89.238)" fill="#2d4552"/><path d="M167.943,298.335l-.324-58.886h-21.5v55.1A94.3,94.3,0,0,0,167.943,298.335Z" transform="translate(-106.031 -187.267)" fill="#3b5562"/><path d="M167.727,250.9l-.108-11.453h-21.5v9.076A146.948,146.948,0,0,0,167.727,250.9Z" transform="translate(-106.031 -187.267)" fill="#354c58"/><path d="M69.151,57.1c38.141,0,69.151,12.534,69.151,28.093s-31.01,28.093-69.151,28.093S0,100.749,0,85.191,31.01,57.1,69.151,57.1Z" transform="translate(0 -54.942)" fill="#465765"/><path d="M126.311,96.483c26.256,0,47.541,7.239,47.541,16.207S152.566,128.9,126.311,128.9s-47.542-7.239-47.542-16.207S100.055,96.483,126.311,96.483Z" transform="translate(-57.159 -83.522)" fill="#2b414d"/><path d="M253.831,49.883a3.283,3.283,0,0,1,.648,4.646l-39.87,48.514a3.4,3.4,0,0,1-4.646.648,3.284,3.284,0,0,1-.648-4.646l39.762-48.514A3.532,3.532,0,0,1,253.831,49.883Z" transform="translate(-151.401 -49.24)" fill="#efefef"/><path d="M230.006,113.234l5.619,3.674,29.389-35.764L259.4,77.578Z" transform="translate(-166.906 -69.804)" fill="#d07c40"/></g></svg>