<svg xmlns="http://www.w3.org/2000/svg" width="99.201" height="97.234" viewBox="0 0 99.201 97.234">
  <g id="nachos" transform="translate(0.002 -0.017)">
    <path id="Trazado_167" data-name="Trazado 167" d="M114.256,315.742c-.579,2.827-1.174,6.514-1.67,8.167L97.162,344.542c-8.73,1.455-14.946.727-19.31-.761-7.654-2.629-9.688-7.638-9.688-7.638l-6.183-20.4Zm0,0" transform="translate(-49.973 -254.556)" fill="#6a1b9a"/>
    <path id="Trazado_168" data-name="Trazado 168" d="M105.907,315.742c-.5,2.513.694,6.894.281,8.266l-1.016,1.016A65.386,65.386,0,0,0,91.309,345.5c-4.348.727-10.283-1.538-13.457-1.719-7.654-2.629-9.688-7.638-9.688-7.638l-6.183-20.4Zm0,0" transform="translate(-49.973 -254.556)" fill="#9d27b0"/>
    <path id="Trazado_169" data-name="Trazado 169" d="M107.436,221.341c0,9.126-12.581,16.533-28.105,16.533-.843,0-1.669-.017-2.48-.067-14.366-.727-25.625-7.836-25.625-16.466S62.485,205.6,76.851,204.875c.811-.049,1.637-.066,2.48-.066C94.855,204.809,107.436,212.216,107.436,221.341Zm0,0" transform="translate(-41.303 -165.115)" fill="#ad1457"/>
    <path id="Trazado_170" data-name="Trazado 170" d="M102.477,221.615c0-9.094-11.473-16.466-25.626-16.466s-25.625,7.373-25.625,16.466S62.7,238.081,76.851,238.081,102.477,230.71,102.477,221.615Zm0,0" transform="translate(-41.302 -165.389)" fill="#e91e63"/>
    <path id="Trazado_171" data-name="Trazado 171" d="M378.76,353.282c-.628.331-1.471.744-2.463,1.206a71.635,71.635,0,0,1-18.037,6.2l-8.366-5.257,1.785-7.7a18.063,18.063,0,0,0,4.464-8.266c.116-.562.215-1.125.282-1.719a1.636,1.636,0,0,1,1.8-1.471,27.967,27.967,0,0,1,21.227,14.764,1.652,1.652,0,0,1-.694,2.248Zm0,0" transform="translate(-282.107 -271.1)" fill="#f57c00"/>
    <path id="Trazado_172" data-name="Trazado 172" d="M376.3,367.805A71.635,71.635,0,0,1,358.26,374l-8.366-5.257,1.785-7.7a18.063,18.063,0,0,0,4.464-8.266,28.076,28.076,0,0,1,20,14.582A1.2,1.2,0,0,1,376.3,367.805Zm0,0" transform="translate(-282.107 -284.417)" fill="#ff9801"/>
    <path id="Trazado_173" data-name="Trazado 173" d="M130.892,251.763c0,4.05-8.366,9.919-21.492,9.919-.826,0-1.636-.016-2.43-.082-9.738-.546-16.45-4.348-18.45-7.8l14.333-11.44a35.171,35.171,0,0,1,4.1-.43c.794-.066,1.6-.082,2.447-.082C122.526,241.844,130.892,247.713,130.892,251.763Zm0,0" transform="translate(-71.371 -194.975)" fill="#90ac00"/>
    <path id="Trazado_174" data-name="Trazado 174" d="M125.933,252.106c0,3.786-7.291,9.159-18.963,9.837-9.738-.546-16.45-4.348-18.45-7.8l14.333-11.44a35.175,35.175,0,0,1,4.1-.43c11.672.678,18.98,6.051,18.98,9.837Zm0,0" transform="translate(-71.371 -195.318)" fill="#a4c400"/>
    <path id="Trazado_175" data-name="Trazado 175" d="M39.48,164.26a29.589,29.589,0,0,1-8.811,7.241,1.605,1.605,0,0,1-1.257.148c-.215-.082-.446-.165-.694-.264-5.951-2.4-16.351-11.16-19.574-13.937a1.651,1.651,0,0,1-.314-2.149c4.133-6.464,15.425-13.11,22.253-16.846,1.19-.661,2.265-1.24,3.125-1.7a1.649,1.649,0,0,1,2.43,1.455,85.192,85.192,0,0,0,3.075,24.6,1.579,1.579,0,0,1-.232,1.455Zm0,0" transform="translate(-6.906 -110.084)" fill="#fec108"/>
    <path id="Trazado_176" data-name="Trazado 176" d="M34.7,173.816a25.117,25.117,0,0,1-5.985,5.472c-5.951-2.4-16.351-11.16-19.574-13.937a1.651,1.651,0,0,1-.314-2.149c4.133-6.464,15.425-13.11,22.253-16.846a1.627,1.627,0,0,1,.777,1.405,85.2,85.2,0,0,0,3.075,24.6,1.579,1.579,0,0,1-.232,1.455Zm0,0" transform="translate(-6.907 -117.987)" fill="#ffdc00"/>
    <path id="Trazado_177" data-name="Trazado 177" d="M271.644,377.321a35.43,35.43,0,0,1-7.159.232,81.182,81.182,0,0,1-21.889-5.059,1.619,1.619,0,0,1-.942-2.166c3.571-8.1,10.647-14.813,15.143-18.5.794-.645,1.521-1.206,2.117-1.669a1.634,1.634,0,0,1,2.563.811A110.7,110.7,0,0,0,272.8,374.824a1.645,1.645,0,0,1-1.158,2.5Zm0,0" transform="translate(-194.731 -282.028)" fill="#fec108"/>
    <path id="Trazado_178" data-name="Trazado 178" d="M266.684,385.692c-.727.1-1.455.182-2.2.232a81.181,81.181,0,0,1-21.889-5.059,1.619,1.619,0,0,1-.942-2.166c3.571-8.1,10.647-14.813,15.143-18.5a112.408,112.408,0,0,0,11.044,23,1.645,1.645,0,0,1-1.157,2.5Zm0,0" transform="translate(-194.731 -290.4)" fill="#ffdc00"/>
    <path id="Trazado_179" data-name="Trazado 179" d="M214.747,282.374c0-1.643-2.22-2.976-4.96-2.976s-4.959,1.333-4.959,2.976,2.22,2.976,4.959,2.976S214.747,284.018,214.747,282.374Zm0,0" transform="translate(-165.145 -225.254)" fill="#549414"/>
    <path id="Trazado_180" data-name="Trazado 180" d="M302.945,31.247c-1.124.413-2.794,1.025-4.843,1.653-.033.017-.05.017-.083.033-6.3,1.951-16.053,4.282-24.121,3.141a1.658,1.658,0,0,1-1.157-2.513,114.827,114.827,0,0,0,10.647-21.74c.248-.711.463-1.4.678-2.1a1.634,1.634,0,0,1,2.563-.81c4,3.025,13.061,10.63,17.259,20.169a1.62,1.62,0,0,1-.942,2.166Zm0,0" transform="translate(-219.7 -6.895)" fill="#fec108"/>
    <path id="Trazado_181" data-name="Trazado 181" d="M298.1,46.43c-.033.017-.05.017-.083.033-6.3,1.951-16.053,4.282-24.121,3.141a1.658,1.658,0,0,1-1.157-2.513,114.827,114.827,0,0,0,10.647-21.74c4.448,3.571,11.953,10.5,15.657,18.913a1.621,1.621,0,0,1-.942,2.166Zm0,0" transform="translate(-219.7 -20.425)" fill="#ffdc00"/>
    <path id="Trazado_182" data-name="Trazado 182" d="M72.453,235.555c-12.013,0-22.763-4.323-27.383-11.014a12.439,12.439,0,0,1-2.375-7.172,10.934,10.934,0,0,1,.487-3.281,1.653,1.653,0,1,1,3.157.976A7.727,7.727,0,0,0,46,217.369a9.049,9.049,0,0,0,1.779,5.279c3.969,5.749,13.881,9.6,24.672,9.6,11.04,0,21.034-3.969,24.867-9.877a9.01,9.01,0,0,0,1.585-5c0-8.065-12.114-14.879-26.452-14.879a45.151,45.151,0,0,0-7.3.59,1.654,1.654,0,1,1-.536-3.263,48.493,48.493,0,0,1,7.84-.633c16.687,0,29.759,7.988,29.759,18.186a12.251,12.251,0,0,1-2.125,6.811c-4.48,6.907-15.33,11.375-27.634,11.375Zm0,0" transform="translate(-34.424 -160.58)"/>
    <path id="Trazado_183" data-name="Trazado 183" d="M102.519,256.462c-11.861,0-19.881-4.515-22.31-8.711a1.653,1.653,0,0,1,2.861-1.658c1.582,2.731,8.261,7.062,19.45,7.062,13.089,0,19.839-5.795,19.839-8.266s-6.751-8.266-19.839-8.266a39.129,39.129,0,0,0-6.28.491,1.653,1.653,0,1,1-.533-3.263,42.426,42.426,0,0,1,6.813-.534c13.64,0,23.146,6.1,23.146,11.573s-9.506,11.573-23.146,11.573Zm0,0" transform="translate(-64.49 -188.099)"/>
    <path id="Trazado_184" data-name="Trazado 184" d="M81.288,347.718c-17.2,0-21.371-9.747-21.565-10.227l-6.2-18.6a1.651,1.651,0,0,1,2.7-1.768l.017.017a1.66,1.66,0,0,1,.4.646l6.183,18.566c.152.344,4.93,10.979,27.158,7.291a1.653,1.653,0,1,1,.543,3.261,56.4,56.4,0,0,1-9.237.817Zm0,0" transform="translate(-43.066 -255.283)"/>
    <path id="Trazado_185" data-name="Trazado 185" d="M316.306,324.789a1.656,1.656,0,0,1-1.584-2.129c.636-2.121,1.171-4.253,1.634-6.518a1.653,1.653,0,1,1,3.239.661c-.483,2.364-1.041,4.59-1.705,6.806A1.655,1.655,0,0,1,316.306,324.789Zm0,0" transform="translate(-253.693 -253.781)"/>
    <path id="Trazado_186" data-name="Trazado 186" d="M22.966,166.49a3.1,3.1,0,0,1-.993-.16c-5.917-1.977-16.531-10.8-20.819-14.5a3.3,3.3,0,0,1-.627-4.3c4.98-7.794,19.424-15.577,25.593-18.9l.4-.217h0a3.3,3.3,0,0,1,4.861,2.913,83.193,83.193,0,0,0,3.005,24.094,3.281,3.281,0,0,1-.49,2.952,31.232,31.232,0,0,1-9.338,7.7,3.289,3.289,0,0,1-1.6.415Zm5.111-35.157-.391.21c-5.942,3.2-19.855,10.7-24.373,17.769,6.657,5.758,15.331,12.418,19.711,13.883a29.625,29.625,0,0,0,8.229-6.8,84.245,84.245,0,0,1-3.178-25.058Zm0,0" transform="translate(0 -103.205)"/>
    <path id="Trazado_187" data-name="Trazado 187" d="M260.131,372.4c-9.825,0-20.438-3.527-25.005-5.237a3.317,3.317,0,0,1-1.891-1.81,3.212,3.212,0,0,1,.021-2.563c4.39-9.974,13.886-17.892,17.764-20.834a3.322,3.322,0,0,1,3.034-.51,3.277,3.277,0,0,1,2.121,2.178,108.91,108.91,0,0,0,11.142,23.443,3.3,3.3,0,0,1-2.32,5.006,34.416,34.416,0,0,1-4.865.327Zm-7.124-27.83c-3.663,2.807-12.647,10.286-16.726,19.553,3.978,1.433,17.75,6.173,28.223,4.682a112.307,112.307,0,0,1-11.5-24.234Zm0,0" transform="translate(-187.842 -275.145)"/>
    <path id="Trazado_188" data-name="Trazado 188" d="M358.809,355.46a1.653,1.653,0,0,1-.244-3.288c7.96-1.195,18.042-6.248,19.983-7.249a26.277,26.277,0,0,0-19.954-13.892,18.918,18.918,0,0,1-5.15,10.939,1.653,1.653,0,0,1-2.423-2.251,15.83,15.83,0,0,0,4.311-9.033,3.288,3.288,0,0,1,1.219-2.239,3.246,3.246,0,0,1,2.419-.7,29.567,29.567,0,0,1,22.48,15.6,3.227,3.227,0,0,1,.268,2.522,3.331,3.331,0,0,1-1.653,1.99c-2.021,1.044-12.533,6.309-21.008,7.581A1.587,1.587,0,0,1,358.809,355.46Zm0,0" transform="translate(-282.659 -264.216)"/>
    <path id="Trazado_189" data-name="Trazado 189" d="M276.4,439.77a1.653,1.653,0,1,1-1.653-1.654A1.654,1.654,0,0,1,276.4,439.77Zm0,0" transform="translate(-220.185 -353.222)"/>
    <path id="Trazado_190" data-name="Trazado 190" d="M310.533,431.239a1.653,1.653,0,1,1-1.653-1.653A1.653,1.653,0,0,1,310.533,431.239Zm0,0" transform="translate(-247.706 -346.344)"/>
    <path id="Trazado_191" data-name="Trazado 191" d="M319.068,397.106a1.653,1.653,0,1,1-1.654-1.653A1.653,1.653,0,0,1,319.068,397.106Zm0,0" transform="translate(-254.587 -318.824)"/>
    <path id="Trazado_192" data-name="Trazado 192" d="M447.068,397.106a1.653,1.653,0,1,1-1.654-1.653A1.653,1.653,0,0,1,447.068,397.106Zm0,0" transform="translate(-357.788 -318.824)"/>
    <path id="Trazado_193" data-name="Trazado 193" d="M344.666,448.306a1.653,1.653,0,1,1-1.653-1.654A1.653,1.653,0,0,1,344.666,448.306Zm0,0" transform="translate(-275.226 -360.105)"/>
    <path id="Trazado_194" data-name="Trazado 194" d="M387.334,397.106a1.653,1.653,0,1,1-1.654-1.653A1.653,1.653,0,0,1,387.334,397.106Zm0,0" transform="translate(-309.627 -318.824)"/>
    <path id="Trazado_195" data-name="Trazado 195" d="M421.467,414.173a1.653,1.653,0,1,1-1.653-1.653A1.653,1.653,0,0,1,421.467,414.173Zm0,0" transform="translate(-337.147 -332.584)"/>
    <path id="Trazado_196" data-name="Trazado 196" d="M421.467,380.04a1.653,1.653,0,1,1-1.653-1.653A1.653,1.653,0,0,1,421.467,380.04Zm0,0" transform="translate(-337.147 -305.064)"/>
    <path id="Trazado_197" data-name="Trazado 197" d="M46,234.974a1.653,1.653,0,1,1-1.654-1.653A1.653,1.653,0,0,1,46,234.974Zm0,0" transform="translate(-34.424 -188.103)"/>
    <path id="Trazado_198" data-name="Trazado 198" d="M80.135,209.372a1.653,1.653,0,1,1-1.654-1.654A1.653,1.653,0,0,1,80.135,209.372Zm0,0" transform="translate(-61.944 -167.461)"/>
    <path id="Trazado_199" data-name="Trazado 199" d="M114.267,183.77a1.653,1.653,0,1,1-1.654-1.654A1.654,1.654,0,0,1,114.267,183.77Zm0,0" transform="translate(-89.464 -146.82)"/>
    <path id="Trazado_200" data-name="Trazado 200" d="M105.732,226.438a1.653,1.653,0,1,1-1.653-1.654,1.653,1.653,0,0,1,1.653,1.654Zm0,0" transform="translate(-82.583 -181.221)"/>
    <path id="Trazado_201" data-name="Trazado 201" d="M88.666,260.571a1.653,1.653,0,1,1-1.653-1.654A1.653,1.653,0,0,1,88.666,260.571Zm0,0" transform="translate(-68.823 -208.741)"/>
    <path id="Trazado_202" data-name="Trazado 202" d="M122.8,260.571a1.653,1.653,0,1,1-1.653-1.654A1.653,1.653,0,0,1,122.8,260.571Zm0,0" transform="translate(-96.343 -208.741)"/>
    <path id="Trazado_203" data-name="Trazado 203" d="M127.487,412.243c-12.315,0-16.1-5.464-16.254-5.7a1.653,1.653,0,0,1,2.738-1.853c.086.116,3.245,4.243,13.516,4.243a1.654,1.654,0,1,1,0,3.307Zm0,0" transform="translate(-89.458 -325.695)"/>
    <path id="Trazado_204" data-name="Trazado 204" d="M202.906,280.122c-3.708,0-6.613-2.034-6.613-4.629s2.9-4.629,6.613-4.629,6.613,2.034,6.613,4.629S206.615,280.122,202.906,280.122Zm0-5.952c-2.056,0-3.306.919-3.306,1.323s1.25,1.322,3.306,1.322,3.306-.918,3.306-1.322-1.249-1.322-3.306-1.322Zm0,0" transform="translate(-158.264 -218.372)"/>
    <path id="Trazado_205" data-name="Trazado 205" d="M271.645,31.133a34.28,34.28,0,0,1-4.864-.326,3.3,3.3,0,0,1-2.323-5.006A108.874,108.874,0,0,0,275.6,2.356,3.281,3.281,0,0,1,277.726.18a3.325,3.325,0,0,1,3.032.511c3.879,2.943,13.375,10.862,17.763,20.834a3.21,3.21,0,0,1,.021,2.563A3.318,3.318,0,0,1,296.65,25.9c-4.567,1.71-15.18,5.237-25.005,5.237Zm7.114-27.808a112.2,112.2,0,0,1-11.49,24.217l0,0c10.453,1.484,24.247-3.258,28.225-4.747-4.074-9.206-13.058-16.687-16.733-19.474Zm0,0" transform="translate(-212.823 0)"/>
    <path id="Trazado_206" data-name="Trazado 206" d="M389.9,98.5a1.653,1.653,0,1,1-1.654-1.653A1.653,1.653,0,0,1,389.9,98.5Zm0,0" transform="translate(-311.693 -78.074)"/>
    <path id="Trazado_207" data-name="Trazado 207" d="M355.76,89.97a1.653,1.653,0,1,1-1.653-1.654A1.653,1.653,0,0,1,355.76,89.97Zm0,0" transform="translate(-284.17 -71.192)"/>
    <path id="Trazado_208" data-name="Trazado 208" d="M347.228,55.837a1.653,1.653,0,1,1-1.654-1.654A1.653,1.653,0,0,1,347.228,55.837Zm0,0" transform="translate(-277.291 -43.672)"/>
    <path id="Trazado_209" data-name="Trazado 209" d="M321.627,107.036a1.653,1.653,0,1,1-1.653-1.654A1.654,1.654,0,0,1,321.627,107.036Zm0,0" transform="translate(-256.65 -84.952)"/>
  </g>
</svg>
