<svg xmlns="http://www.w3.org/2000/svg" width="30.926" height="36.316" viewBox="0 0 30.926 36.316">
  <g id="shield" transform="translate(-0.5 0)">
    <path id="Trazado_273" data-name="Trazado 273" d="M29.792,24.252A18.322,18.322,0,0,1,25.4,31.088a22.969,22.969,0,0,1-8.576,5.081,2.624,2.624,0,0,1-.833.147h-.031a2.661,2.661,0,0,1-.511-.05,2.771,2.771,0,0,1-.352-.1,22.968,22.968,0,0,1-8.586-5.078,18.287,18.287,0,0,1-4.387-6.835C.354,19.447.455,14.148.536,9.89V9.825C.554,9.473.565,9.1.571,8.7A3.849,3.849,0,0,1,4.195,4.925,14.936,14.936,0,0,0,14.36.641l.024-.022a2.326,2.326,0,0,1,3.158,0l.024.022A14.938,14.938,0,0,0,27.732,4.925,3.849,3.849,0,0,1,31.356,8.7c.006.411.016.779.033,1.129v.028C31.471,14.118,31.571,19.428,29.792,24.252Zm0,0" transform="translate(0 0)" fill="#00dd80"/>
    <path id="Trazado_274" data-name="Trazado 274" d="M232.747,24.255a18.322,18.322,0,0,1-4.388,6.836,22.969,22.969,0,0,1-8.576,5.081,2.624,2.624,0,0,1-.833.147V0A2.33,2.33,0,0,1,220.5.622l.024.022a14.938,14.938,0,0,0,10.166,4.285A3.849,3.849,0,0,1,234.311,8.7c.006.411.016.779.033,1.129v.028C234.425,14.122,234.525,19.431,232.747,24.255Zm0,0" transform="translate(-202.954 -0.003)" fill="#00aa63"/>
    <path id="Trazado_275" data-name="Trazado 275" d="M109,137.449a9.062,9.062,0,0,1-9.019,9.051h-.032a9.051,9.051,0,1,1,0-18.1h.032A9.062,9.062,0,0,1,109,137.449Zm0,0" transform="translate(-83.983 -119.291)" fill="#fff"/>
    <path id="Trazado_276" data-name="Trazado 276" d="M227.968,137.449a9.062,9.062,0,0,1-9.019,9.051V128.4A9.062,9.062,0,0,1,227.968,137.449Zm0,0" transform="translate(-202.954 -119.291)" fill="#e1ebf0"/>
    <path id="Trazado_277" data-name="Trazado 277" d="M162.848,213.8l-4.076,4.077-.881.881a1.067,1.067,0,0,1-1.508,0l-1.894-1.895A1.065,1.065,0,0,1,156,215.355l1.141,1.141,4.2-4.2a1.065,1.065,0,0,1,1.507,1.507Zm0,0" transform="translate(-142.777 -196.944)" fill="#b4d2d7"/>
    <path id="Trazado_278" data-name="Trazado 278" d="M223.025,213.8l-4.076,4.077v-3.014l2.57-2.569a1.065,1.065,0,0,1,1.507,1.507Zm0,0" transform="translate(-202.954 -196.944)" fill="#6fa5aa"/>
  </g>
</svg>
